<svg xmlns="http://www.w3.org/2000/svg" version="1.1" width="600px" height="600px" viewBox="0 0 200 200" style="overflow:hidden!important;"><g id="svga-group-wrapper"><g id="svga-group-backs-single"><path id="SvgjsPath12254" d="M0 0h200v200H0V0z" fill="#ecf0f1" stroke-width="none" opacity="1" stroke="none"></path></g><g id="svga-group-humanwrap-move" transform="matrix(1,0,0,1,0,0)"><g id="svga-group-humanwrap"><g id="svga-group-hair-back-move" transform="matrix(1,0,0,1,0,0)"><g id="svga-group-hair-back"></g></g><g id="svga-group-humanbody-back"><path id="SvgjsPath9465" d="M180.8 184.9c-2.3-3.4-38.9-17.8-38.9-17.8l-13.4-5.2-5.6-68.8H76.8L71.3 162l-13.4 5.2S21.4 181.6 19 185c-2.3 3.4-3.3 14.9-3.3 14.9V219h168.5v-19.2c-.1.1-1-11.5-3.4-14.9z" fill="#f0c7b1" stroke-width="none" opacity="1" stroke="none"></path></g><g id="svga-group-chinshadow-single"><path id="SvgjsPath9461" d="M74.4 151c3.3 4.9 8 13.4 10.3 14 1.7.5 6.3-1.4 8.5-2.3.8-.3 1.7-.3 2.5 0 2.1 1 6.8 2.8 8.4 2.3 2.3-.6 7-9 10.3-14 1.78-2.67 7.23-9.55 11.96-15.83l-3.42-42.07H76.82l-4.4 55.29c.85 1.08 1.55 1.98 1.98 2.61z" fill="#d19271" stroke-width="none" opacity="1" stroke="none"></path></g><g id="svga-group-humanbody-front"><path id="SvgjsPath9466" d="M184.5 219c-.1-6.4-.1-12.8-.1-19.2l-.3-.1s.1-.1.2 0c.1 0 .1.1.1.1v-.4l-.1-.5-.1-.9-.2-1.9c-.2-1.3-.4-2.5-.6-3.8-.2-1.3-.5-2.5-.9-3.8-.4-1.2-.8-2.5-1.5-3.6-.8-.9-1.9-1.5-2.9-2.1-1-.6-2.1-1.1-3.2-1.7-2.1-1.1-4.3-2.1-6.5-3.1-4.4-2-8.7-3.9-13.1-5.7-4.4-1.9-8.8-3.7-13.2-5.5l-13-5.2-1.2-16.9c-.4-5.7-.9-11.5-1.3-17.2l-1.3-17.2-1.5-17.3-.1-.8h-.8c-7.7 0-15.4.1-23.1.1l-23.1.2h-.5v.5L75 110.2l-1.3 17.2c-.8 11.4-1.8 22.8-2.8 34.2-5.6 2.1-11.2 4.2-16.7 6.4-5.6 2.2-11.2 4.5-16.8 6.9-2.8 1.2-5.6 2.4-8.3 3.6-2.8 1.3-5.5 2.5-8.2 4.1-.7.4-1.3.8-2 1.4-.2.1-.4.4-.5.6l-.3.6c-.2.4-.4.7-.5 1.1-.6 1.5-1 3-1.3 4.5-.6 3-1.1 6-1.4 9.1l-.1 19.1v.9h.9l42.1.1H100c14 0 28.1-.1 42.1-.2l42.1-.5h.3v-.3zm-84.5-1-42.1-.1-41.2.1-.1-18.1c.3-3 .6-5.9 1.2-8.9.3-1.4.6-2.9 1.1-4.2.1-.3.3-.7.4-.9l.2-.4.3-.3c.5-.4 1.1-.8 1.8-1.2 2.5-1.5 5.3-2.8 8-4.1 2.7-1.3 5.5-2.5 8.2-3.7 5.5-2.4 11.1-4.8 16.7-7.1s11.2-4.5 16.9-6.7l.2-.1v-.2c.9-11.5 1.7-23 2.7-34.4l1.4-17.2 1.5-16.7 22.6.2c7.4.1 14.8.1 22.3.1l1.3 16.4 1.5 17.2c.5 5.7 1 11.5 1.5 17.2l1.6 17.2v.3l.3.1 13.4 5c4.4 1.7 8.9 3.4 13.3 5.2 4.4 1.8 8.8 3.7 13.2 5.6 2.2 1 4.3 2 6.5 3 1.1.5 2.1 1.1 3.2 1.6 1 .6 2.1 1.2 2.9 2 .7 1.1 1.1 2.3 1.4 3.5.3 1.2.6 2.5.8 3.7.2 1.3.4 2.5.6 3.8l.2 1.9.1.9.1.5v.4c0 6.3 0 12.6-.1 18.9l-41.8-.5c-14 .1-28.1 0-42.1 0z" fill="#c27b55" stroke-width="none" opacity="1" stroke="none"></path><path id="SvgjsPath9467" d="M125.1 142.4s-1.8 23-9.1 32.9c0 0 7.9-25 9.1-32.9zm-34.5 16s5 7.9 11.5 10.1c0 0-9.5 2.2-11.5-10.1zM73.4 140c6.7 25.6 6.7 25.6 8.5 30.7 0 0 .4-12.6-8.5-30.7z" fill="#d19271" stroke-width="none" opacity="1" stroke="none"></path></g><g id="svga-group-clothes-single"><path id="SvgjsPath12019" d="m71.9 145.1-6.2 2.5-.7 14.1v20.2L79 220h42l10.7-34.3 3.4-25.5-1.7-14.2-5.4-.8-.3 9.2s-26.2 22.2-26.6 22.7-29.2-22.8-29.2-22.8v-9.2z" fill="#eaeaea" stroke-width="none" opacity="1"></path><path id="SvgjsPath12020" d="m127.8 155.4.8-.3 4.9-9-5.5-.9-.2 10.2zm-56.3-1.6h-.4l-5.2-6.1 6.3-2.6-.7 8.7z" fill="#c9c9c9" stroke-width="none" opacity="1"></path><path id="SvgjsPath12021" d="m44.6 168 1.1 1.7s-24.9 7.2-29 9c0 0-4.4-3.1-6 3.4-1.6 6.5-3.8 30.8-3.8 37.9h72s-8.7-29-14.1-59.9L44.6 168zm144.6 14.1c-1.6-6.5-6-3.4-6-3.4-4.1-1.9-29-9-29-9l1.1-1.7-20.3-7.8c-5.3 30.8-14 59.8-14 59.8h72c.1-7.2-2.2-31.4-3.8-37.9z" fill="#384d77" stroke-width="none" opacity="1" stroke="none"></path><path id="SvgjsPath12022" d="M89 180.6s4.9 12.4 6.4 15.4c0 0-2.8 17.1-2.9 23.8h18s-2.5-20-3.1-24.1c0 0 4.4-11 5.7-13.9 0 0-2.7-3.4-3.8-3.6-1.1-.2-8.7-.8-8.7-.8s-7.3.9-8.7 1.4c-1.4.4-2.9 1.8-2.9 1.8z" fill="#222222" stroke-width="none" opacity="1"></path><path id="SvgjsPath12023" d="M106.9 196c-1.1.5-3.8 1.9-5.2 2.1h-.5c-1.6-.1-4.2-1.3-5.3-1.8v-.2c.6.1 1.6.2 2.9.5 1.7.4 6.5-.4 8.1-.7m-5.5 17.2c1.2 1.5 3.4 2.7 3.1 1-.2-1.7-3.3-15.8-3.4-16-.1.7-.9 13.5.3 15zm-2.8-17.3s-.1-8.9-.6-9.8c-.5-.9-1.7-.1-2.1 1.8-.5 2 2.3 7.6 2.7 8zm-1.8 15.8c.5 2.7 1.9-.4 2.1-3.6.2-3.2-1.1-10.6-1.1-10.6-.2.5-1.5 11.4-1 14.2zm7.4-27.7c-1-1.1-2.5 1.9-2.8 4-.4 2.1-.2 6.3-.2 7.8-.1 0 3.9-10.7 3-11.8zm3.2 6.8c.6-1.2-.6-2.2-1.5-1.7s-1.7 5.3-2.1 7.2c0 0 3-4.2 3.6-5.5zm-2.4 18.4c.5 1 1.9 2.2 2.1 1.5.2-.7-2.7-12.5-2.7-12.5s.1 10 .6 11z" fill="#000000" stroke-width="none" opacity="1"></path><path id="SvgjsPath12024" d="m192.7 208.3-.9-11.6c-.3-3.9-.7-7.8-1.3-11.6-.2-1-.3-1.9-.5-2.9s-.5-2-1.1-3c-.5-1-1.6-1.9-2.9-2.1-.6-.1-1.2 0-1.8.1-.4.1-.8.3-1.2.5-2.3-.9-4.6-1.6-6.8-2.4l-7.3-2.2c-4.6-1.4-9.1-2.7-13.7-3.9l.6-.9.5-.7-.8-.3c-3.5-1.3-7-2.5-10.4-3.8l-9.2-3.2c0-.1 0-.2.1-.4l-2.2-14.2-6-1.4s-.5 4.6-.5 9.7l-13.8 11c-2.2 1.9-4.5 3.8-6.7 5.8l-3.3 2.9-1.7 1.5-.8.8c-2.3-1.6-4.6-3.4-6.9-5.1l-7.1-5.4-14.6-11.4.1-9.8c-.5.5-6.2 2.5-6.8 3v.1l-.6 8.6-.3 4-10 3.5c-3.4 1.2-6.9 2.5-10.4 3.8l-.8.3.5.7.6.9c-4.6 1.2-9.2 2.5-13.7 3.9l-7.3 2.2c-2.3.8-4.5 1.4-6.9 2.4-.4-.2-.7-.4-1.1-.5-.6-.2-1.2-.2-1.8-.1-1.3.2-2.3 1.1-2.8 2-.6 1-.9 2-1.1 3-.2 1-.3 2-.5 2.9-.5 3.9-.9 7.8-1.3 11.6l-.9 11.6c-.3 3.9-.6 7.8-.7 11.7v.3h.3c6 0 12 .1 18 .2l18 .3 18.1.3h78l18-.1c6-.1 12-.1 18-.3 6-.1 12-.2 18-.2h.4v-.4c-.1-3.9-.4-7.8-.7-11.7zm-88.1-33 3.4-2.9 6.8-5.7 13.6-11.5.2-.2-.4-9.6c1.8.4 3.6.8 5 1.1l1.1 13.6-1.1 8.5-1.4 6.4c-1.1 5-2.4 10-3.6 14.9-.7 2.9-1.5 5.9-2.3 8.8-.3-.8-.6-1.6-1-2.4-.3-.7-.6-1.4-1-2.1-.3-.7-.8-1.4-1.2-2-1.8-2.6-3.6-5-5.5-7.4-1-1.2-2-2.4-3-3.5-1.1-1.1-2.1-2.3-3.5-3.3-.3-.2-.7-.5-1.1-.7-.2-.1-.5-.2-.8-.3-.3-.1-.4 0-.6-.1l-2.3-.3-2.5-.3 1.2-1zm-38.8-19.1.2-8.5 5.7-2.1-.6 8.2 1.4 1.6h.1c4.5 3.8 9.1 7.6 13.7 11.3 2.3 1.9 4.6 3.7 6.9 5.6 1.8 1.4 3.5 2.8 5.4 4.2l-2.1.3c-.8.1-1.5.2-2.3.4l-1.2.2c-.2.1-.3.1-.6.1-.3.1-.5.2-.7.3-1.6.9-2.7 2-3.8 3.1-1.1 1.1-2.1 2.3-3.2 3.5-2 2.4-3.9 4.9-5.7 7.4-.9 1.3-1.8 2.6-2.6 3.9-.7 1.1-1.4 2.2-2 3.3-.8-2.9-1.5-5.9-2.3-8.8-1.2-5-2.5-9.9-3.6-14.9l-1.7-7.5-1-4.7c-.2-2.4-.1-4.8 0-6.9zM7.3 219.6c0-3.8.3-7.5.6-11.3.3-3.9.7-7.7 1.2-11.6.5-3.9 1-7.7 1.7-11.5.4-1.9.7-3.9 1.6-5.3.5-.7 1-1.2 1.7-1.2.7-.1 1.5.2 2.1.6l.4.3.4-.2c.6 1.4 1.1 2.7 1.6 4.1.6 1.7 1.1 3.4 1.3 5.1.5 3.5.8 7 1.2 10.5l1.2 10.5.7 5.3.6 4.5c-5.3.1-10.8.2-16.3.2zM61 219l-18 .1c-6 .1-12 .1-18 .3h-1.1c-.1-3.3-.4-6.5-.6-9.8-.3-3.5-.6-7-1-10.6-.4-3.5-.8-7-1.5-10.5-.7-3.2-2-6.3-3.5-9.1 2.2-.9 4.6-1.6 7-2.4l7.2-2.3 14.5-4.5h.1c.3.3.5.6.8.9.8.8 1.6 1.6 2.5 2.3-1.2.6-2.5 1.2-3.7 1.9l-.7.3.3.7c1.6 3.7 3.3 7.4 5 11 1.7 3.7 3.5 7.3 5.2 10.9l5.4 10.8c1.7 3.3 3.4 6.5 5.2 9.7-1.7.3-3.4.3-5.1.3zm5.3 0c-1.3-3.5-2.8-6.9-4.2-10.3-1.6-3.7-3.2-7.4-4.9-11.1-1.7-3.7-3.4-7.3-5.1-11-1.6-3.4-3.3-6.8-5-10.2 2.3-1.4 4.6-2.7 6.9-4.1l7.5-4.7c-1.4.6-2.7 1.2-4 1.8l-4 1.9c-1.3.7-2.7 1.4-4 2-.6-1-1.3-1.9-2-2.8-.5-.7-1.1-1.3-1.6-2l-.3-.4c3-1.2 6.1-2.5 9.1-3.8l10-4.2c0 .5.4 2.5.7 3.7l.3 1.8.3 1.9c.4 2.5.8 5.1 1.3 7.6 1 5 1.9 10.1 3.1 15.1 2.1 9.6 4.5 19.1 7.2 28.5-3.8.2-7.5.3-11.3.3zm13.6.2c-1.4-4.7-2.7-9.5-4-14.3-.5-2-1.1-3.9-1.6-5.9 1.7-2.3 3.5-4.5 5.3-6.7 2-2.4 4-4.7 6.1-7 1-1.1 2.1-2.2 3.2-3.3l.1-.1c1.2 3.1 4.6 11.4 5.9 14.1-.3 1.7-2.7 16.8-2.9 23.3l-12.1-.1zm13.1.1c.2-6.6 2.7-21.7 2.9-23.2v-.1l-.1-.1c-1.2-2.5-4.9-11.7-6-14.5.8-.7 1.7-1.4 2.5-1.8.1-.1.3-.1.4-.1.1 0 .3-.1.5-.1l1.1-.2c.8-.1 1.5-.2 2.3-.3 1.5-.2 3-.3 4.5-.5l4.5.5 2.3.2c.2 0 .4 0 .5.1.1 0 .2 0 .3.1.3.1.5.3.8.5 1 .7 1.9 1.6 2.8 2.5-1.5 3.5-5.4 13.3-5.5 13.4v.2c.6 4 2.7 20.3 3.1 23.5l-16.9-.1zm18 .3c-.2-1.5-2.5-19.7-3.1-23.9.4-1.1 3.8-9.4 5.2-12.9 1 1 1.9 2 2.8 3 2 2.3 4 4.6 5.9 7 .5.6 1 1.2 1.4 1.8.4.6.8 1.3 1.1 2l1.3 2.5-1.5 5.7c-1.3 4.9-2.7 9.9-4.2 14.8-2.9.1-5.9.1-8.9 0zm11.4-.7c2.7-9.4 5.1-18.9 7.2-28.5 1.1-5 2.1-10.1 3.1-15.1.4-2 .7-4.1 1.1-6.1 1-2.8 1.8-5.7 2.2-8.7l9.3 3.9c3.1 1.3 6.1 2.5 9.1 3.8l-.3.4c-.6.6-1.1 1.3-1.6 2-.7.9-1.3 1.8-1.9 2.8-1.3-.7-2.7-1.4-4-2l-4-1.9c-1.3-.6-2.7-1.3-4-1.8l7.5 4.7c2.3 1.4 4.6 2.8 6.9 4.1-1.7 3.4-3.4 6.8-5 10.2-1.8 3.6-3.4 7.3-5.1 11-1.7 3.7-3.3 7.4-4.9 11.1-1.5 3.4-2.9 6.8-4.2 10.3-3.9-.1-7.6-.2-11.4-.2zm52.6.5-18-.3-18-.1h-5.2c1.8-3.2 3.5-6.5 5.2-9.7 1.9-3.6 3.7-7.2 5.4-10.8 1.8-3.6 3.5-7.3 5.2-10.9 1.7-3.7 3.4-7.3 5-11l.3-.7-.7-.3c-1.2-.6-2.5-1.3-3.7-1.9.9-.7 1.7-1.5 2.5-2.3.3-.3.5-.6.8-.9h.1l14.5 4.5 7.2 2.3c2.4.8 4.8 1.5 7 2.4-1.6 2.8-2.9 5.9-3.5 9.1-.7 3.5-1.1 7-1.5 10.5-.4 3.5-.8 7-1 10.6-.2 3.3-.5 6.5-.6 9.8-.2-.3-.6-.3-1-.3zm1.2 0 .6-4.5.7-5.3c.5-3.5.8-7 1.2-10.5l1.2-10.5c.2-1.7.7-3.4 1.3-5.1.5-1.4 1-2.8 1.6-4.1l.4.2.4-.3c.6-.4 1.5-.7 2.1-.6.7.1 1.3.5 1.7 1.2.9 1.4 1.2 3.4 1.6 5.3.7 3.8 1.2 7.6 1.7 11.5.5 3.8.9 7.7 1.2 11.6.3 3.8.6 7.5.6 11.3-5.3 0-10.8-.1-16.3-.2z" fill="#182d58" stroke-width="none" opacity="1" stroke="none"></path><path id="SvgjsPath12025" d="M111 174.5c3.5.2 9.7 9.1 9.7 9.1s8.9-15.3 9.7-19c.8-3.6 2-14.2 2-14.2s-3 9.7-3.8 11.1-17.6 13-17.6 13zm-33.5 15c2-3.5 8.4-11.7 9.9-12.5 1.5-.8 7.6-1.6 7.6-1.6l-15-10.9s2.1 8.2 2.1 10.1-4.6 14.9-4.6 14.9z" fill="#ffffff" stroke-width="none" opacity="1"></path><path id="SvgjsPath12026" d="M184.7 180.9c2.3.8 3.3 6.6 4.1 9.7.8 3.1 2.3 25.1 2.3 25.1s-3.1-25.1-4.6-28.7c-1.5-3.6-1.8-6.1-1.8-6.1zM155 172c1.5-.2 21.9 5.8 25.7 8.2 0 0-10.6-2.3-15.3-3.6-4.8-1.3-10.4-4.6-10.4-4.6zm-16.3-2.6c1 .5 13 7.8 13 7.8s-11.7 24.1-12.9 27.1-5.4 11.7-5.4 11.7 6.1-16.8 7.8-22.6c1.6-5.8 6.1-15.7 6.1-15.7l-8.6-8.3zm-74.2-2.8c.5 5.3 7.8 40.6 10.9 47.8 0 0-6.6-15.3-9.7-29.5-3.2-14.2-1.2-18.3-1.2-18.3z" fill="#4d6086" stroke-width="none" opacity="1" stroke="none"></path></g><g id="svga-group-head" transform="matrix(1,0,0,1,0,0)"><g id="svga-group-ears-left-move" transform="matrix(1,0,0,1,0,0)"><g id="svga-group-ears-left"><path id="SvgjsPath10418" d="M68.8 87.48s-4.2-8.27-8.66-11.42c-4.46-3.15-9.84-3.15-9.84-3.15s-3.02 2.1-1.97 12.6c0 0 4.46 10.76 12.47 14.7 0 0 5.77 1.31 8.66.66-.01-.01 2.09-6.18-.66-13.39z" fill="#f0c7b1" stroke-width="none" opacity="1" stroke="none"></path><path id="SvgjsPath10419" d="M67.88 90.76s-3.67-7.87-6.04-9.84c-2.36-1.97-7.87-5.12-9.32-3.28-1.44 1.84-1.57 7.61-1.57 7.61s1.57 4.59 6.3 7.09c4.72 2.49 10.37 2.76 10.37 2.76l.26-4.34z" fill="#e1ac8f" stroke-width="none" opacity="1" stroke="none"></path><path id="SvgjsPath10420" d="M47.99 82.25c.02 1.09.09 2.19.17 3.28v.02l.01.03a39.54 39.54 0 0 0 2.2 4.42c.82 1.43 1.75 2.79 2.75 4.11 1.02 1.3 2.15 2.51 3.38 3.64 1.25 1.1 2.62 2.07 4.12 2.83l.04.02.05.01c1.45.31 2.89.55 4.36.7.73.07 1.47.13 2.22.13.74-.01 1.5-.05 2.25-.23l.19-.05.05-.17c.33-1.14.5-2.27.58-3.42.08-1.15.08-2.3-.01-3.44a23.99 23.99 0 0 0-.52-3.38c-.23-1.12-.59-2.2-.99-3.27-.94-1.86-2.02-3.63-3.13-5.4-1.14-1.74-2.35-3.46-3.85-4.95-.75-.74-1.6-1.4-2.5-1.96-.91-.56-1.88-.98-2.87-1.35-1.99-.73-4.08-1.08-6.19-1.12h-.08l-.04.04c-.89.85-1.22 1.93-1.54 2.98-.29 1.06-.45 2.16-.54 3.25-.09 1.09-.13 2.18-.11 3.28zm.33-3.27c.11-1.08.28-2.15.59-3.19.15-.52.35-1.02.59-1.49.23-.44.53-.89.86-1.18 2.01.12 4.01.6 5.9 1.29 1.9.73 3.7 1.74 5.19 3.13 1.5 1.39 2.82 2.99 4.04 4.67 1.22 1.67 2.29 3.46 3.28 5.28.37 1.07.71 2.15.91 3.27.24 1.11.32 2.24.36 3.37.04 1.13-.04 2.26-.19 3.37-.14 1.04-.35 2.09-.65 3.07-.62.1-1.26.12-1.91.1-.71-.01-1.43-.06-2.14-.14-1.41-.15-2.83-.4-4.21-.7-1.39-.74-2.72-1.62-3.93-2.66-1.2-1.07-2.33-2.24-3.35-3.49a42.391 42.391 0 0 1-2.82-3.96c-.86-1.37-1.66-2.79-2.33-4.25l-.16-1.59c-.05-.54-.06-1.09-.09-1.63-.04-1.1-.03-2.18.06-3.27z" fill="#e1ac8f" stroke-width="none" opacity="1" stroke="none"></path><path id="SvgjsPath10421" d="M52.2 80.53c.18-.69.39-1.36.67-2.03.07-.16.16-.33.26-.48.11-.15.23-.33.48-.37.45.02.72.22 1.06.37a18.3 18.3 0 0 1 3.48 2.44c.53.48 1.03 1.01 1.42 1.66.18.33.36.69.38 1.14.01.25-.01.36-.01.54l.01.51c.16 2.77.58 5.56.83 8.36l-.07.01c-.34-1.37-.61-2.75-.86-4.13-.26-1.39-.44-2.78-.55-4.2l-.03-.54v-.51c0-.26-.13-.56-.28-.84-.31-.57-.74-1.11-1.21-1.61-.94-1-2.01-1.94-3.22-2.61-.29-.16-.65-.33-.91-.33-.23.06-.41.43-.53.73-.26.63-.39 1.33-.52 2.01-.23 1.37-.39 2.77-.48 4.15-.02.34-.04.7-.02 1.01-.01.17.21.46.41.71.42.52.91 1.02 1.4 1.5.81.79 1.65 1.57 2.5 2.33.09-.91.18-1.82.24-2.74.04-.59.07-1.17.08-1.75.01-.53.01-1.07-.06-1.58-.15-.02-.33-.03-.5-.02a4.1 4.1 0 0 0-.69.1c-.46.1-.91.25-1.35.43l-.03-.07c.41-.25.85-.46 1.32-.62.23-.08.47-.15.72-.19.26-.04.49-.07.79-.01l.11.02.03.13c.15.61.18 1.21.22 1.81.02.6.02 1.19.01 1.79-.03 1.19-.08 2.37-.19 3.56l-.07.75-.58-.49c-1.08-.92-2.11-1.87-3.11-2.88-.49-.51-.98-1.03-1.43-1.61-.11-.15-.22-.3-.32-.47-.05-.09-.1-.18-.14-.29-.05-.11-.07-.28-.07-.37-.01-.39.03-.74.06-1.1.14-1.45.39-2.84.75-4.22z" fill="#c27b55" stroke-width="none" opacity="1" stroke="none"></path></g></g><g id="svga-group-ears-right-move" transform="matrix(1,0,0,1,0,0)"><g id="svga-group-ears-right"><path id="SvgjsPath10422" d="M131.2 87.48s4.2-8.27 8.66-11.42c4.46-3.15 9.84-3.15 9.84-3.15s3.02 2.1 1.97 12.6c0 0-4.46 10.76-12.47 14.7 0 0-5.77 1.31-8.66.66.01-.01-2.09-6.18.66-13.39z" fill="#f0c7b1" stroke-width="none" opacity="1" stroke="none"></path><path id="SvgjsPath10423" d="M132.12 90.76s3.67-7.87 6.04-9.84c2.36-1.97 7.87-5.12 9.32-3.28 1.44 1.84 1.57 7.61 1.57 7.61s-1.57 4.59-6.3 7.09c-4.72 2.49-10.37 2.76-10.37 2.76l-.26-4.34z" fill="#e1ac8f" stroke-width="none" opacity="1" stroke="none"></path><path id="SvgjsPath10424" d="M151.91 78.96c-.09-1.09-.25-2.18-.54-3.25-.32-1.05-.65-2.13-1.54-2.98l-.04-.04h-.08c-2.11.04-4.21.39-6.19 1.12-.99.37-1.96.79-2.87 1.35-.9.56-1.75 1.22-2.5 1.96-1.5 1.49-2.71 3.21-3.85 4.95-1.11 1.77-2.18 3.54-3.13 5.4-.39 1.07-.76 2.15-.99 3.27a23.99 23.99 0 0 0-.52 3.38c-.1 1.14-.09 2.29-.01 3.44s.25 2.28.58 3.42l.05.17.19.05c.75.18 1.51.22 2.25.23.75 0 1.48-.05 2.22-.13 1.47-.15 2.91-.39 4.36-.7l.05-.01.04-.02c1.5-.76 2.87-1.73 4.12-2.83 1.23-1.12 2.36-2.34 3.38-3.64 1-1.31 1.93-2.68 2.75-4.11.82-1.43 1.57-2.89 2.2-4.42l.01-.03v-.02c.07-1.09.14-2.18.17-3.28.01-1.09-.03-2.18-.11-3.28zm-.16 3.28c-.03.54-.04 1.09-.09 1.63l-.16 1.59c-.67 1.47-1.47 2.89-2.33 4.25-.87 1.37-1.8 2.7-2.82 3.96a29.855 29.855 0 0 1-3.35 3.49 21.554 21.554 0 0 1-3.93 2.66c-1.38.3-2.8.54-4.21.7-.71.08-1.43.13-2.14.14-.64.01-1.29 0-1.91-.1-.3-.98-.51-2.03-.65-3.07-.15-1.11-.22-2.24-.19-3.37.04-1.13.12-2.26.36-3.37.2-1.12.54-2.2.91-3.27.98-1.82 2.05-3.61 3.28-5.28 1.21-1.67 2.54-3.28 4.04-4.67 1.49-1.39 3.28-2.4 5.19-3.13 1.88-.69 3.89-1.17 5.9-1.29.34.29.63.74.86 1.18.25.47.44.97.59 1.49.3 1.03.48 2.11.59 3.19.08 1.1.09 2.18.06 3.27z" fill="#e1ac8f" stroke-width="none" opacity="1" stroke="none"></path><path id="SvgjsPath10425" d="M147.8 80.53c-.18-.69-.39-1.36-.67-2.03-.07-.16-.16-.33-.26-.48-.11-.15-.23-.33-.48-.37-.45.02-.72.22-1.06.37a18.3 18.3 0 0 0-3.48 2.44c-.53.48-1.03 1.01-1.42 1.66-.18.33-.36.69-.38 1.14-.01.25.01.36.01.54l-.01.51c-.16 2.77-.58 5.56-.83 8.36l.07.01c.34-1.37.61-2.75.86-4.13.26-1.39.44-2.78.55-4.2l.03-.54v-.51c0-.26.13-.56.28-.84.31-.57.74-1.11 1.21-1.61.94-1 2.01-1.94 3.22-2.61.29-.16.65-.33.91-.33.23.06.41.43.53.73.26.63.39 1.33.52 2.01.23 1.37.39 2.77.48 4.15.02.34.04.7.02 1.01.01.17-.21.46-.41.71-.42.52-.91 1.02-1.4 1.5-.81.79-1.65 1.57-2.5 2.33-.09-.91-.18-1.82-.24-2.74-.04-.59-.07-1.17-.08-1.75-.01-.53-.01-1.07.06-1.58.15-.02.33-.03.5-.02.23.01.46.05.69.1.46.1.91.25 1.35.43l.03-.07c-.41-.25-.85-.46-1.32-.62a4.23 4.23 0 0 0-.72-.19c-.26-.04-.49-.07-.79-.01l-.11.02-.03.13c-.15.61-.18 1.21-.22 1.81-.02.6-.02 1.19-.01 1.79.03 1.19.08 2.37.19 3.56l.07.75.58-.49c1.08-.92 2.11-1.87 3.11-2.88.49-.51.98-1.03 1.43-1.61.11-.15.22-.3.32-.47.05-.09.1-.18.14-.29.05-.11.07-.28.07-.37.01-.39-.03-.74-.06-1.1a26.8 26.8 0 0 0-.75-4.22z" fill="#c27b55" stroke-width="none" opacity="1" stroke="none"></path></g></g><g id="svga-group-faceshape-wrap"><g id="svga-group-faceshape-single"><path id="SvgjsPath9446" d="M140.4 54.9c-2.2-10-6.3-16-15.2-20.8-9.3-5-25.2-4.8-25.2-4.8s-15.9-.2-25.2 4.8c-8.8 4.8-13 10.8-15.2 20.8-.9 4 0 13.6 0 13.6s1.2 13.5 1.2 19.8-1.2 21.4-.8 24.4c.4 3.1 16.6 21.8 19.9 26.7 3.3 4.9 8 13.4 10.3 14 1.7.5 6.3-1.4 8.5-2.3.8-.3 1.7-.3 2.5 0 2.2 1 6.8 2.8 8.5 2.3 2.3-.6 7-9 10.3-14 3.3-4.9 19.5-23.7 19.9-26.7.4-3.1-.8-18.1-.8-24.4s1.2-19.8 1.2-19.8c0-.1 1-9.6.1-13.6z" fill="#f0c7b1" stroke-width="none" opacity="1" stroke="none"></path><path id="SvgjsPath9447" d="M140.4 69.03s.85-8.56.08-14.12c-2.2-10-6.48-16.1-15.38-20.9-9.3-5-25.2-4.8-25.2-4.8S84 29 74.7 34C66 38.9 61.8 44.9 59.6 54.9c-.9 4 0 13.6 0 13.6s1.2 13.5 1.2 19.8-1.2 21.4-.8 24.4c.4 3.1 16.6 21.8 19.9 26.7 3.3 4.9 8 13.4 10.3 14 1.7.5 6.3-1.4 8.5-2.3.8-.3 1.7-.3 2.5 0 2.2 1 6.8 2.8 8.5 2.3 2.3-.6 7-9 10.3-14 3.3-4.9 19.5-23.7 19.9-26.7.4-3.1-.8-18.1-.8-24.4s1.3-19.27 1.3-19.27zm-1.7 30.47.1 5.2c0 1.7.1 3.4.1 5.1 0 .8.21 2.72-.8 4.3-.9 1.4-1.9 2.8-2.9 4.2-2 2.8-4.1 5.5-6.2 8.2l-6.4 7.2c-1.1 1.4-2.1 2.7-3.1 4.2-.5.7-1 1.5-1.5 2.2l-1.4 2.2c-.9 1.5-1.8 2.9-2.8 4.3-.9 1.4-1.9 2.8-2.9 4.1-.3.3-.5.6-.8.9-.2.2-.5.5-.7.5h-.5c-.3 0-.7-.1-1.1-.2-1.5-.3-3.1-.9-4.7-1.5-.4-.2-2.5-.9-2.8-.9-.6 0-1.2.1-1.8.3 0 0-4.28 1.78-5.9 2.1-1.5.3-2 .2-2.1.1l-1.2-1.2c-1.1-1.2-2-2.6-3-4s-1.9-2.9-2.8-4.3c-.9-1.5-1.9-2.9-2.9-4.4-1-1.4-2.1-2.8-3.2-4.1-1.1-1.4-2.1-2.7-3.2-4.1-2.2-2.7-4.3-4.4-6.4-7.1-1.1-1.4-2.1-2.7-3.1-4.1s-2.96-4.3-3.5-5.3c-.48-.88-.5-1.6-.5-1.6v-1.9c0-1.7 0-3.4.1-5.2l.5-10.3c.1-1.7.1-3.5.2-5.2 0-1.7 0-3.5-.1-5.2-.1-3.5-.4-6.9-.6-10.3l-.4-5.2c-.3-1.5-.4-3.2-.4-4.9 0-1.7-.1-3.4 0-5.1 0-.8.8-4.9.8-4.9.5-1.6 1-3.2 1.6-4.8.7-1.5 1.4-3 2.3-4.4.9-1.4 2-2.6 3.2-3.8l.4-.4c.1-.1.3-.3.5-.4l.9-.8c.7-.5 1.3-1 2-1.5s1.4-.9 2.1-1.3l1.1-.6.6-.3.6-.3 1.1-.5 1.2-.5.6-.2c.2-.1.4-.1.6-.2l1.2-.4c3.2-1 6.6-1.6 9.9-2 3.4-.4 6.8-.7 10.2-.7 3.4 0 6.8.2 10.2.5 3.4.4 6.8 1 10 2 .4.1.8.3 1.2.4l.6.2c.2.1.4.1.6.2.8.4 1.6.7 2.3 1.1 1.5.8 3 1.7 4.3 2.7.7.5 2.9 2.5 2.9 2.5 1.15 1.08 2.88 3.67 3.78 5.17.8 1.5 1.53 3.1 2.13 4.7.6 1.6.93 3.39 1.33 5.09.2 1.1.29 2.44.29 3.64 0 1.1.08 1.88.08 2.98-.1 2.2-.15 4.39-.35 6.59l-.47 5.43c-.2 1.7-.3 3.4-.5 5.2-.3 3.4-.51 6.71-.7 10.44-.14 3.51.01 6.66.11 10.16z" fill="#c27b55" stroke-width="none" opacity="1" stroke="none"></path></g></g><g id="svga-group-mouth-single-move" transform="matrix(1,0,0,1,0,0)"><g id="svga-group-mouth-single"><path id="SvgjsPath10004" d="M83.97 125.04c.12-.08 2.71-.87 5.61-1.89 2.72-.96 5.75-2.17 6.12-2.21.78-.08 4.82 3.03 4.82 3.03s3.5-3.19 3.96-3.19c.23 0 3.46 1.14 6.75 2.02 3.36.9 7.4.4 7.4.4s-3.98 2.09-7.29 1.72c-2.91-.32-5.66-1.21-6.09-1.13-.93.16-3.81 3.5-4.35 3.57-.54.08-5.13-3.73-5.52-3.89-.17-.06-2.95 1.05-5.48 1.6-2.99.63-5.93-.03-5.93-.03z" fill="#da7c87" stroke-width="none" opacity="1" stroke="none"></path><path id="SvgjsPath10005" d="M87.82 125.93c.52 1.38 1.02 2.77 1.59 4.13.28.68.57 1.36.91 1.99.08.16.18.31.27.45.08.14.22.28.25.28.06 0 .08.02.17.02l.24.01c.17-.01.35-.02.53-.04 1.43-.17 7.87-2.25 8.26-2.28.37-.03 10.85 2.22 11.57 2.26.18.01.36.01.52.01.06-.01.16-.01.18-.02.03-.01.09-.06.14-.11.21-.23.4-.56.57-.87.68-1.29 1.19-2.68 1.71-4.06-.17.72-.36 1.44-.58 2.14-.22.71-.45 1.41-.75 2.11-.16.34-.31.69-.58 1.02-.08.08-.15.17-.29.24-.07.04-.13.05-.18.06l-.17.03c-.21.02-2.07 0-2.81-.04-2.96-.17-8.25.14-8.61.16-.35.02-9.34.05-9.5.05l-.31-.02c-.1 0-.25-.06-.37-.09-.06-.03-.14-.09-.19-.13a1.42 1.42 0 0 1-.12-.13c-.07-.09-.13-.17-.18-.26-.1-.17-.19-.35-.27-.52-.31-.69-.56-1.39-.8-2.1-.45-1.43-.87-2.84-1.2-4.29z" fill="#d19271" stroke-width="none" opacity="1" stroke="none"></path></g></g><g id="svga-group-eyes-left-move" transform="matrix(1,0,0,1,0,0)"><g id="svga-group-eyes-left"><g id="svga-group-eyesback-left"><path id="SvgjsPath11655" d="M80.2 74.2c7.5 0 13.5 5.8 13.5 13s-6 13-13.5 13-13.5-5.8-13.5-13 6-13 13.5-13z" fill="#ffffff" stroke-width="none" opacity="1"></path></g><g id="svga-group-eyesiriswrapper-left" transform="matrix(1,0,0,1,0,0)"><g id="svga-group-eyesiriscontrol-left" transform="matrix(1,0,0,1,0,0)"><g id="svga-group-eyesiris-left"><path id="SvgjsPath11535" d="M80.2 81.9c2.9 0 5.3 2.4 5.3 5.3s-2.4 5.3-5.3 5.3-5.3-2.4-5.3-5.3 2.4-5.3 5.3-5.3z" fill="#4e60a3" stroke-width="none" opacity="1" stroke="none"></path><path id="SvgjsPath11536" d="M80.2 81.6c-3.1 0-5.6 2.5-5.6 5.6s2.5 5.6 5.6 5.6 5.6-2.5 5.6-5.6c0-3-2.5-5.6-5.6-5.6zm4.7 7.5c-.6-.3-1.2-.6-1.8-.8.1-.2.2-.5.2-.8.6.1 1.3.1 1.9.1 0 .6-.1 1.1-.3 1.5zm-.4.7c-.5-.4-1.1-.8-1.7-1.1 0-.1.1-.1.1-.2.6.3 1.2.6 1.8.8 0 .2-.1.3-.2.5zm.1-5c-.6.1-1.3.4-1.8.8 0-.1-.1-.1-.1-.2.2-.2.5-.3.7-.5.3-.2.6-.5.9-.7l.3.6zm.3.8c-.6.1-1.3.3-1.9.6 0-.1-.1-.2-.1-.3.3-.1.6-.3.9-.4s.6-.2.9-.4c.1.1.2.3.2.5zm-1.6 1.6c0-.3 0-.6-.1-.8.6-.1 1.3-.3 1.9-.5.1.4.2.9.2 1.3h-2zm.8-3.2c-.3.2-.6.5-.9.7-.2.2-.4.3-.7.5l-.3-.3c.4-.5.8-1.1 1.1-1.6.3.2.5.5.8.7zm-3.6 6.3c.2 0 .4-.1.7-.2.1.3.3.7.4 1s.2.6.4.8c-.4.2-.9.3-1.4.3 0-.6 0-1.3-.1-1.9zm1.4-7.8c.4.2.9.4 1.2.6-.4.5-.8 1-1.2 1.6-.1-.1-.2-.1-.3-.2.2-.7.3-1.4.3-2zm-1.5-.3c.4 0 .8.1 1.1.2-.1.5-.1 1-.2 1.5 0 .2-.1.3-.1.5-.2-.1-.4-.1-.6-.1.1-.8 0-1.5-.2-2.1zm1.5 8.8c-.2-.3-.3-.7-.5-1 .1 0 .1-.1.2-.1.1.3.3.6.5.9.1.3.3.6.5.8-.1.1-.2.1-.3.2-.1-.3-.2-.5-.4-.8zm.5-.3c-.2-.3-.3-.6-.5-.8.1-.1.2-.1.3-.2.3.6.7 1.1 1.2 1.6-.1.1-.3.2-.4.3-.2-.4-.5-.7-.6-.9zm-2.1-8.5c-.1.6-.1 1.3-.1 2h-.4c0-.2-.1-.4-.1-.6-.1-.4-.1-.9-.2-1.3.2 0 .4-.1.6-.1h.2zm-2.7.7c.3.6.6 1.2 1.1 1.7-.1.1-.2.1-.2.2-.1-.1-.2-.3-.3-.4-.3-.4-.6-.8-.9-1.1 0-.2.2-.3.3-.4zm2 1.3c-.1 0-.2 0-.2.1-.2-.6-.4-1.3-.6-1.9.2-.1.4-.1.6-.2-.1.7 0 1.4.2 2zm-.6.2s-.1 0 0 0l-1.2-1.5c.2-.1.5-.2.7-.3.2.5.3 1.2.5 1.8zm-.4 5.5c.1 0 .1.1.2.1-.1.2-.2.3-.2.4-.2.4-.4.9-.6 1.3l-.6-.3c.3-.3.5-.6.8-.9.1-.2.3-.4.4-.6zm.3.6c.1-.1.1-.3.2-.4h.1c-.3.6-.4 1.2-.6 1.9-.2-.1-.3-.1-.5-.2.4-.4.6-.9.8-1.3zm.7-.3c.1 0 .2 0 .3.1-.2.6-.2 1.3-.3 1.9-.2 0-.5-.1-.7-.1.2-.6.5-1.2.7-1.9zM77 83.4c.2.4.5.7.8 1 .1.2.3.4.4.5l-.4.4c-.5-.4-1.1-.8-1.6-1.1.2-.3.5-.6.8-.8zm-1.2 6.3 1.5-.9c.1 0 .1-.1.2-.1.1.1.2.3.3.4-.5.4-.9.9-1.4 1.4-.2-.2-.4-.5-.6-.8zm-.4-1.1c.4-.1.8-.2 1.1-.4.2-.1.5-.2.7-.3 0 .2.1.3.1.5-.1.1-.2.1-.3.2-.5.3-.9.6-1.3.9l-.3-.9zm-.2-1.4c0-.2 0-.3.1-.5.6.2 1.3.3 1.9.3v.5c-.3.1-.6.2-.9.4s-.7.2-.9.4c-.2-.4-.2-.7-.2-1.1zm.2-1.5c.4.2.9.4 1.3.6.2.1.3.2.5.2 0 .1 0 .2-.1.3-.2 0-.3-.1-.5-.1-.5-.1-1-.2-1.4-.1.1-.4.1-.7.2-.9zm.7-1.4c.5.4 1 .9 1.6 1.2-.1.2-.2.3-.3.5H77l-1.5-.6c.2-.4.3-.7.6-1.1zm.4 6.4c.5-.4 1-.8 1.5-1.3l.3.3c-.2.2-.3.4-.4.6-.2.3-.5.7-.7 1-.3-.2-.5-.4-.7-.6zm3.4 1.5c.1-.7.2-1.3.2-2h.2c-.1.6-.1 1.3 0 2h-.1c-.1.1-.2 0-.3 0zm3.7-1.2c-.4-.5-.9-1-1.3-1.5.2-.2.4-.4.5-.6.5.4 1.1.8 1.6 1.1-.2.4-.5.7-.8 1z" fill="#253984" stroke-width="none" opacity="1" stroke="none"></path><path id="SvgjsPath11537" d="M80.2 84.3c1.6 0 2.9 1.3 2.9 2.9s-1.3 2.9-2.9 2.9-2.9-1.3-2.9-2.9 1.3-2.9 2.9-2.9z" fill="#000000" stroke-width="none" opacity="1"></path><path id="SvgjsPath11538" d="M78.6 84.7c.6 0 1.1.5 1.1 1.1s-.5 1.2-1.1 1.2-1.1-.5-1.1-1.1.5-1.2 1.1-1.2zm3.5 4.1c.3 0 .6.3.6.6s-.2.6-.6.6-.6-.3-.6-.6.3-.6.6-.6z" fill="#ffffff" stroke-width="none" opacity="1"></path></g></g></g><g id="svga-group-eyesfront-left"><path id="SvgjsPath11663" d="M80.2 73.7c-7.8 0-14.1 6.1-14.1 13.6s6.3 13.6 14.1 13.6 14.1-6.1 14.1-13.6S88 73.7 80.2 73.7zm0 21.9c-5.5 0-10.7-2.8-10.8-3.7-.2-1 .9-4.2 3.2-6.8 2.4-2.6 8-3.5 12.8-1.5s5.9 8 5.9 8c.1 1.8-5.6 4-11.1 4z" fill="#f0c7b1" stroke-width="none" opacity="1" stroke="none"></path><path id="SvgjsPath11664" d="M89.4 86.9c.7 0 3.1 0 2.4-.2-1.2-.4-5.6-3.8-6.8-4.3s-5.5-1.3-6.2-1.3-7.1 2.8-7.7 3.2c-.6.4-2.2 6-2.6 6.3-.2.2.4.5.8.7 0 .1 0 .2-.1.3v.2c0 .1.1.2.1.3.1.2.2.3.3.4.2.2.5.4.7.6.5.3 1 .6 1.6.9 2.1 1 4.4 1.6 6.8 1.8 2.4.2 4.7-.1 7-.7 1.1-.3 2.2-.7 3.3-1.2.5-.3 1-.5 1.5-.9l.6-.6c.2-.2.3-.5.3-.8-.2-1.1-.7-2.2-1.2-3.3-.3-.4-.5-.9-.8-1.4zm1.6 5.5-.6.6c-.5.3-1 .6-1.5.8-1.1.4-2.2.8-3.3 1-2.2.4-4.6.7-6.8.5-2.3-.2-4.5-.8-6.6-1.7-.5-.2-1-.5-1.5-.8-.2-.2-.5-.3-.7-.5-.1-.1-.2-.2-.2-.3 0-.1 0-.1-.1-.1v-.2c0-.2 0-.4.1-.6.4-1 1.6-3.8 2.5-5 1.2-1.5 3.6-3.3 6.9-3.3 1.7 0 3.2.2 4.5.5.5.2 1.1.3 1.6.6 1.1.4 2 1.1 2.8 1.8 1.6 1.6 2.8 3.7 3.3 5.9-.1.3-.2.6-.4.8z" fill="#000000" stroke-width="none" opacity="1" stroke="none"></path></g></g></g><g id="svga-group-eyes-right-move" transform="matrix(1,0,0,1,0,0)"><g id="svga-group-eyes-right"><g id="svga-group-eyesback-right"><path id="SvgjsPath11656" d="M119.8 74.2c7.5 0 13.5 5.8 13.5 13s-6 13-13.5 13-13.5-5.8-13.5-13 6-13 13.5-13z" fill="#ffffff" stroke-width="none" opacity="1"></path></g><g id="svga-group-eyesiriswrapper-right" transform="matrix(1,0,0,1,0,0)"><g id="svga-group-eyesiriscontrol-right" transform="matrix(1,0,0,1,0,0)"><g id="svga-group-eyesiris-right"><path id="SvgjsPath11539" d="M119.8 82.5c2.6 0 4.7 2.1 4.7 4.7s-2.1 4.7-4.7 4.7-4.7-2.1-4.7-4.7 2.1-4.7 4.7-4.7z" fill="#4e60a3" stroke-width="none" opacity="1" stroke="none"></path><path id="SvgjsPath11540" d="M119.8 82.3c-2.7 0-4.9 2.2-4.9 4.9s2.2 4.9 4.9 4.9 4.9-2.2 4.9-4.9-2.2-4.9-4.9-4.9zm4.1 6.6c-.5-.3-1.1-.5-1.6-.7.1-.2.1-.4.2-.7.6.1 1.2.1 1.7.1-.1.4-.1.9-.3 1.3zm-.3.5c-.4-.3-.9-.7-1.4-.9 0-.1.1-.1.1-.2.5.3 1 .5 1.6.7-.2.2-.2.3-.3.4zm.1-4.3c-.5.1-1.1.4-1.6.7 0-.1-.1-.1-.1-.2.2-.1.4-.3.6-.4.3-.2.5-.4.8-.6 0 .2.2.3.3.5zm.2.7c-.6.1-1.1.3-1.6.5 0-.1-.1-.2-.1-.3.3-.1.5-.2.8-.3.3-.1.6-.2.8-.3 0 .1.1.2.1.4zm-1.4 1.4c0-.2 0-.5-.1-.7.6-.1 1.1-.2 1.7-.4.1.4.2.8.2 1.2-.6-.1-1.2-.1-1.8-.1zm.7-2.8c-.3.2-.5.4-.8.6-.2.1-.4.3-.6.4l-.3-.3c.4-.4.7-.9 1-1.4l.7.7zm-3.1 5.5c.2 0 .4-.1.6-.1.1.3.2.6.4.9.1.2.2.5.3.7-.4.2-.8.2-1.2.3 0-.7 0-1.2-.1-1.8zm1.2-6.8c.4.1.8.3 1.1.6-.4.4-.7.9-1 1.4-.1-.1-.2-.1-.3-.2.1-.6.2-1.3.2-1.8zm-1.3-.3c.3 0 .7.1 1 .2-.1.4-.1.9-.2 1.3 0 .1-.1.3-.1.4-.2-.1-.3-.1-.5-.1 0-.6-.1-1.2-.2-1.8zm1.3 7.8c-.1-.3-.3-.6-.4-.9.1 0 .1-.1.2-.1.1.3.3.5.4.8.1.2.2.5.4.7-.1 0-.2.1-.2.1-.1-.2-.3-.4-.4-.6zm.4-.4c-.2-.2-.3-.5-.5-.7.1-.1.2-.1.3-.2.3.5.6.9 1 1.4-.1.1-.2.2-.4.3-.1-.3-.3-.6-.4-.8zm-1.8-7.4c-.1.6-.1 1.1 0 1.7h-.4c0-.2-.1-.3-.1-.5-.1-.4-.1-.8-.2-1.2h.7c-.1 0 0 0 0 0zm-.7 1.8c-.1 0-.1 0-.2.1-.1-.6-.3-1.1-.5-1.6.2-.1.4-.1.6-.1-.1.4 0 1 .1 1.6zm-.4.1c0 .1-.1.1 0 0-.3-.5-.7-.9-1.1-1.4l.6-.3c.1.6.3 1.2.5 1.7zm-.3.2c-.1 0-.2.1-.2.1-.1-.1-.2-.2-.3-.4-.3-.3-.5-.7-.8-.9.1-.1.3-.2.4-.3.2.5.5 1.1.9 1.5zm-.1 4.6c.1 0 .1.1 0 0 0 .2 0 .4-.1.5-.2.4-.4.8-.5 1.2-.2-.1-.4-.2-.5-.3.2-.3.5-.6.7-.8.1-.2.3-.4.4-.6zm.3.6c.1-.1.1-.2.2-.3h.1c-.2.5-.4 1.1-.5 1.6-.1-.1-.3-.1-.4-.1l.6-1.2zm.5-.3h.3c-.2.5-.2 1.1-.2 1.7-.2 0-.4-.1-.6-.1.2-.5.4-1 .5-1.6zm-2.2-5.9c.2.3.4.6.7.9.1.2.2.3.4.5l-.3.3c-.4-.4-.9-.7-1.4-1 .1-.3.3-.5.6-.7zm-1 5.5c.4-.2.9-.5 1.3-.8.1 0 .1-.1.2-.1.1.1.1.2.2.3l-1.2 1.2c-.2-.1-.4-.3-.5-.6zm-.4-1c.3-.1.7-.2 1-.3l.6-.3c0 .1.1.3.1.4-.1.1-.2.1-.3.2-.4.3-.8.5-1.2.8 0-.2-.1-.5-.2-.8zm-.2-1.2v-.4c.5.2 1.1.2 1.7.3v.4c-.3.1-.5.2-.8.3-.3.1-.6.2-.8.3-.1-.3-.1-.6-.1-.9zm.2-1.4c.4.2.8.3 1.1.5.1.1.3.1.4.2 0 .1 0 .2-.1.2-.2 0-.3 0-.4-.1-.4-.1-.8-.1-1.3-.1.2-.2.2-.4.3-.7zm.6-1.1c.4.4.9.8 1.4 1.1-.1.1-.2.3-.2.4-.1 0-.2-.1-.3-.1-.4-.2-.9-.4-1.3-.5 0-.3.2-.6.4-.9zm.4 5.5c.4-.4.9-.7 1.3-1.2l.3.3c-.1.2-.3.3-.4.5l-.6.9c-.2-.1-.4-.3-.6-.5zm3 1.4c.1-.6.2-1.2.1-1.7h.2c-.1.6-.1 1.2 0 1.7H119.6zm3.1-1.1c-.4-.4-.8-.8-1.1-1.3.2-.2.3-.3.4-.5.5.3.9.7 1.4 1-.1.3-.4.5-.7.8z" fill="#253984" stroke-width="none" opacity="1" stroke="none"></path><path id="SvgjsPath11541" d="M119.8 84.7c1.4 0 2.5 1.1 2.5 2.5s-1.1 2.5-2.5 2.5-2.5-1.1-2.5-2.5 1.1-2.5 2.5-2.5z" fill="#000000" stroke-width="none" opacity="1"></path><path id="SvgjsPath11542" d="M118.4 85c.5 0 1 .4 1 1s-.4 1-1 1-1-.4-1-1 .4-1 1-1zm3.1 3.6c.3 0 .5.2.5.5s-.2.5-.5.5-.5-.2-.5-.5.2-.5.5-.5z" fill="#ffffff" stroke-width="none" opacity="1"></path></g></g></g><g id="svga-group-eyesfront-right"><path id="SvgjsPath11665" d="M119.8 73.7c-7.8 0-14.1 6.1-14.1 13.6s6.3 13.6 14.1 13.6 14.1-6.1 14.1-13.6-6.3-13.6-14.1-13.6zm.3 20.6c-5.5 0-11.3-1.9-11.1-3.4 0 0 1.2-5.1 5.9-6.9s9.6-.7 12 1.5c2.4 2.3 4.2 4.8 4 5.6-.1.8-5.3 3.2-10.8 3.2z" fill="#f0c7b1" stroke-width="none" opacity="1" stroke="none"></path><path id="SvgjsPath11668" d="M131.9 90c-.3-.3-3.5-4-4.1-4.3s-4-3.2-4.8-3.2-6.4 0-7.6.4-4.2 2.8-4.7 3.4c-.3.4.2.2.7 0-.4.5-.8 1-1.1 1.5-.6 1-1 2-1.3 3 0 .3.1.6.3.8.2.2.4.4.7.5.5.3 1 .5 1.5.8 1 .4 2.1.8 3.2 1 2.2.5 4.4.8 6.6.7 2.2-.1 4.4-.6 6.5-1.3 1-.4 2.1-.8 3-1.5l.3-.3c.1-.1.1-.2.1-.3v-.3c0-.1 0-.1-.1-.2.4-.2 1-.4.8-.7zm-1.2 1.1c-.1.1-.1.2-.2.2-.8.6-1.9 1-2.9 1.4-2.1.7-4.2 1.1-6.4 1.3-2.2.1-4.3-.1-6.5-.4-1.1-.2-2.1-.4-3.2-.8-.5-.2-1-.4-1.5-.7-.2-.1-.5-.3-.7-.5-.2-.2-.3-.4-.3-.7.6-2.1 1.9-4 3.6-5.3.9-.7 1.8-1.1 2.8-1.5.9-.3 1.7-.5 2.6-.6.2 0 .5-.1.7-.1h.7c1.8-.1 3.7.2 5.3.9 1.3.8 2.3 1.8 2.9 2.5.9 1 2.3 2.9 2.8 3.7.1.2.1.3.1.5.2-.1.2 0 .2.1z" fill="#000000" stroke-width="none" opacity="1" stroke="none"></path></g></g></g><g id="svga-group-facehighlight-single"></g><g id="svga-group-eyebrows-left-move" transform="matrix(1,0,0,1,0,0)"><g id="svga-group-eyebrows-left-rotate" transform="matrix(1,1.7453292519943295e-9,-1.7453292519943295e-9,1,1.2391838311032188e-7,-1.3753196981269866e-7)"><g id="svga-group-eyebrows-left"><path id="SvgjsPath11258" d="M91.61 68.78s.68 5.89.07 6.92c-.62 1.03-6.92-2.39-9.93-4.06-3.02-1.68-5.83-2.31-7.18-1.33-1.35.98-5.84 5.47-5.84 5.47s4.12-10.89 4.61-11.59c.49-.7 6.94 1.5 6.94 1.5s1.97 1.59 3.08 2.82l-1.07-2.59s7.5 2.36 7.93 2.92c.41.57 1.14 2.84 1.14 2.84l.25-2.9z" fill="#2a232b" stroke-width="none" opacity="1" stroke="none"></path><path id="SvgjsPath11259" d="M91.6 68.75c-.01.02 0 .04-.01.06-.01-.01-.02-.01-.02-.01v.02l.01.04.01.04c-.05.41-.1.82-.16 1.26-.05.33-.09.68-.14 1.02-.11-.35-.22-.7-.34-1.05-.08-.25-.18-.5-.28-.73-.05-.12-.1-.25-.17-.37-.07-.13-.1-.23-.24-.38-.13-.12-.23-.16-.34-.22-.11-.06-.22-.11-.32-.17-.22-.1-.44-.2-.65-.29-.44-.19-.87-.35-1.31-.53-1.76-.65-3.52-1.26-5.29-1.85l-.56-.19.25.62.48 1.19c-.16-.14-.32-.3-.47-.44-.52-.47-1.05-.92-1.59-1.36l-.05-.04-.05-.02a54.25 54.25 0 0 0-4.63-1.34c-.39-.08-.78-.17-1.19-.22a6 6 0 0 0-.61-.06c-.1 0-.21 0-.32.02-.12.02-.23.03-.39.15-.1.09-.11.14-.15.2l-.07.16-.13.29-.24.58-.46 1.17c-.61 1.56-1.2 3.14-1.78 4.71l-1.73 4.73-.19.53.37-.37c.95-.96 1.91-1.91 2.88-2.84.98-.91 1.96-1.87 3.01-2.63.53-.34 1.19-.4 1.83-.36.65.05 1.3.2 1.95.41 1.29.42 2.52 1.07 3.75 1.78 1.24.7 2.49 1.36 3.76 1.98 1.27.62 2.54 1.22 3.88 1.65.33.1.67.2 1.03.24.18.02.36.03.55 0 .1-.02.2-.06.29-.13.04-.04.09-.11.12-.15.02-.04.05-.1.06-.15.13-.4.15-.78.17-1.16.01-.38.01-.76 0-1.15-.02-.77-.1-1.53-.17-2.29l-.12-1.14-.07-.57-.04-.29-.02-.14-.01-.07-.01-.04v-.02c-.04-.05-.07-.08-.08-.08zm.02.61.04.56.07 1.14c.04.75.05 1.51.06 2.26 0 .38-.01.75-.04 1.11-.03.36-.06.74-.17 1.03-.03.08-.06.13-.09.15-.04.03-.08.05-.15.06-.13.02-.28.01-.44-.01-.31-.06-.64-.15-.95-.26-1.28-.45-2.54-1.08-3.79-1.7-1.25-.63-2.49-1.31-3.73-1.98-.62-.34-1.25-.68-1.9-.97-.65-.28-1.3-.53-1.98-.73-.67-.19-1.35-.32-2.03-.34-.67-.01-1.38.08-1.96.49-.55.42-1.02.87-1.52 1.33l-1.47 1.39c-.84.8-1.69 1.62-2.52 2.43l1.65-4.12 1.9-4.63.49-1.14.25-.56.12-.28.07-.12c.01-.03.05-.08.02-.04 0 0 .08-.03.15-.04.08 0 .16-.01.25 0 .17.01.37.03.56.05.38.06.76.14 1.14.24 1.51.37 3.01.86 4.51 1.35.51.42 1.02.86 1.52 1.3.51.46 1.02.93 1.48 1.43L84.3 70l-.67-1.6-.83-1.99c1.59.48 3.17.98 4.74 1.52.44.15.88.3 1.31.46.22.08.44.17.64.25.11.04.21.1.31.14.1.04.21.1.27.16.01.01 0 .01.01.01l.03.04.04.06.09.16c.06.11.11.22.16.34.1.24.2.47.3.71.19.48.37.96.54 1.45l.17.48.03-.49c.03-.46.06-.91.08-1.39.02-.41.04-.84.08-1.27v.06l.02.26z" fill="#1b141c" stroke-width="none" opacity="1" stroke="none"></path></g></g></g><g id="svga-group-eyebrows-right-move" transform="matrix(1,0,0,1,0,0)"><g id="svga-group-eyebrows-right-rotate" transform="matrix(1,1.7453292519943295e-9,-1.7453292519943295e-9,1,1.2705996255135688e-7,-2.123193070246998e-7)"><g id="svga-group-eyebrows-right"><path id="SvgjsPath11260" d="M108.81 71.46s-.04 5.1.68 5.96c.72.87 6.57-2.29 9.37-3.83 2.8-1.55 5.5-2.19 6.94-1.39s6.36 4.52 6.36 4.52-5.25-9.24-5.8-9.83c-.56-.59-6.69 1.52-6.69 1.52s-1.78 1.44-2.73 2.53l.77-2.27s-7.15 2.28-7.51 2.77c-.35.49-.82 2.48-.82 2.48l-.57-2.46z" fill="#2a232b" stroke-width="none" opacity="1" stroke="none"></path><path id="SvgjsPath11261" d="m132.25 76.67-2.22-4.02c-.74-1.35-1.49-2.67-2.26-4l-.59-.99-.31-.49-.16-.24-.09-.12c-.04-.04-.06-.1-.17-.16-.17-.1-.29-.1-.4-.12a1.71 1.71 0 0 0-.32 0c-.21.01-.4.04-.6.06-.38.06-.77.15-1.14.23-1.5.37-2.97.81-4.43 1.3l-.06.02-.04.03c-.48.4-.96.8-1.42 1.23l-.42.39.35-1.04.18-.53-.54.18c-1.69.57-3.36 1.14-5.03 1.77-.42.16-.83.32-1.24.5-.2.09-.41.18-.62.28-.1.05-.21.1-.3.15-.11.06-.2.11-.31.2-.11.14-.14.22-.19.34-.04.1-.08.22-.13.32-.07.22-.14.43-.2.64-.08.3-.15.61-.23.91-.08-.3-.16-.59-.25-.88-.11-.36-.21-.72-.3-1.08v-.08s-.01.01-.02.01c-.01-.02-.01-.03-.02-.06-.01 0-.03.03-.03.04v.11l-.01.12-.01.25-.01.49v.99c.01.66.03 1.31.09 1.97.03.32.07.66.13.99.07.33.12.66.29.99.02.05.05.08.08.12.02.04.08.09.14.12.11.07.21.09.3.1.2.03.37 0 .55-.01.34-.05.67-.14.99-.24 1.27-.42 2.47-.97 3.64-1.56 1.18-.57 2.35-1.19 3.49-1.83 1.14-.66 2.29-1.25 3.51-1.66.61-.2 1.24-.35 1.88-.42.63-.06 1.29-.03 1.85.25 1.13.62 2.2 1.41 3.26 2.16 1.06.77 2.11 1.55 3.15 2.36l.41.31-.22-.4zm-4.8-3.5c-.54-.38-1.07-.75-1.65-1.1-.61-.33-1.32-.39-1.99-.36-.68.04-1.34.18-1.97.36-.64.19-1.26.42-1.87.69-.61.27-1.2.59-1.77.9-1.15.62-2.31 1.24-3.47 1.83-1.17.58-2.34 1.17-3.56 1.59-.3.1-.61.2-.91.26-.15.03-.31.04-.44.03-.06 0-.12-.02-.15-.05a.324.324 0 0 1-.1-.12c-.14-.25-.22-.56-.29-.88-.07-.31-.12-.63-.15-.96-.08-.65-.15-1.3-.19-1.95l-.06-.98-.03-.49-.01-.25v-.05c.08.37.16.74.22 1.09.07.41.15.8.23 1.2l.09.42.11-.43c.11-.43.24-.85.38-1.27.07-.21.14-.42.22-.62.04-.1.08-.2.13-.3l.07-.14.04-.06.02-.03.01-.01c.05-.04.16-.1.25-.15.09-.05.2-.09.3-.14.2-.09.41-.16.61-.24.42-.15.83-.3 1.25-.45 1.49-.51 3-.99 4.5-1.46l-.6 1.73-.48 1.4 1-1.1c.4-.45.85-.87 1.31-1.28.44-.4.9-.8 1.35-1.17 1.43-.48 2.86-.94 4.3-1.31.37-.09.73-.18 1.1-.23.18-.03.36-.06.54-.07.08-.01.18-.01.25 0 .07 0 .15.02.15.02-.02-.03.01.01.03.04l.08.11.15.23.31.47.6.97 2.37 3.93 2.08 3.49c-.91-.68-1.83-1.35-2.75-2l-1.61-1.11z" fill="#1b141c" stroke-width="none" opacity="1" stroke="none"></path></g></g></g><g id="svga-group-beardwrap"><g id="svga-group-beard-single-move" transform="matrix(1,0,0,1,0,0)"><g id="svga-group-beard-single"></g></g></g><g id="svga-group-mustache-single-move" transform="matrix(1,0,0,1,0,0)"><g id="svga-group-mustache-single"></g></g><g id="svga-group-nose-single-move" transform="matrix(1,0,0,1,0,0)"><g id="svga-group-nose-single"><path id="SvgjsPath12769" d="M99.1 116.5c.67.12 4.53-3.31 4.53-3.31s2.06 1.59 3.62 1.43c1.56-.16 2.44-1.08 3-1.96.56-.88-.89-3.1-1.78-4.41-.9-1.31-3.54-5.22-4.09-7.02-1.07-3.45-3-4.76-4.92-4.64-1.92.12-4.04 1.52-4.6 3.44-.56 1.92-.72 4.28-1.8 5.76s-3.32 4-3.56 4.72c-.24.72-.11 2.8 1.24 3.56 1.73.97 4.3-.51 4.3-.51s3.18 2.78 4.06 2.94z" fill="#f0c7b1" stroke-width="none" opacity="1" stroke="none"></path><path id="SvgjsPath12770" d="M110.28 110.87c-.42-1.01-1.08-1.86-1.81-2.61.57.88 1.08 1.8 1.39 2.76.15.48.24.97.16 1.42-.05.23-.12.41-.26.6-.13.2-.29.39-.47.54-.69.66-1.7.91-2.68.78-.49-.06-.99-.2-1.46-.39-.45-.16-.86-.39-1.29-.62.38-.56.72-1.15 1.02-1.76-.97.91-1.89 1.83-2.87 2.64-.49.4-.98.8-1.51 1.09-.51.3-1.07.55-1.51.52-.12.01-.21-.02-.31-.04-.09-.05-.17-.06-.3-.16-.24-.15-.49-.36-.74-.55-.5-.39-.99-.82-1.49-1.23-.99-.84-1.99-1.69-3.07-2.48a21.8 21.8 0 0 0 1.68 2.24c-.5.22-1.01.41-1.53.52-.64.12-1.3.15-1.84-.1-1.09-.53-1.72-1.83-1.54-2.94.05-.28.13-.5.3-.74.17-.26.36-.53.56-.79.4-.52.82-1.02 1.26-1.52l.66-.74c.26-.28.46-.56.67-.84.41-.57.77-1.18 1.07-1.83.3-.65.48-1.4.59-2.06.12-.68.22-1.35.3-2.02.15-1.35.27-2.69.31-4.04.1-2.7.03-5.42-.51-8.07.05 2.69-.14 5.35-.4 8-.15 1.32-.29 2.65-.5 3.96-.1.66-.2 1.31-.32 1.96-.12.66-.27 1.22-.54 1.79a9.34 9.34 0 0 1-.94 1.65c-.18.26-.37.53-.57.74-.23.26-.45.51-.66.78-.43.53-.85 1.07-1.24 1.63-.2.28-.39.57-.57.88-.2.33-.34.76-.37 1.14-.13 1.57.85 3.05 2.25 3.55.73.23 1.47.11 2.12-.11.54-.19 1.03-.46 1.49-.77.24.28.47.57.71.84.44.5.91.96 1.41 1.42.25.23.51.44.82.65.13.1.36.22.57.3.22.06.44.12.66.11.88 0 1.55-.38 2.14-.76.58-.41 1.1-.86 1.55-1.37.44-.48.84-.99 1.21-1.53.75.66 1.64 1.25 2.68 1.45.54.12 1.11.12 1.66 0 .55-.14 1.07-.41 1.49-.8.21-.19.39-.42.54-.65.17-.23.29-.54.32-.84.06-.55-.08-1.1-.29-1.6z" fill="#c27b55" stroke-width="none" opacity="1" stroke="none"></path></g></g><g id="svga-group-hair-front"><path id="SvgjsPath12075" d="M142.42 55.29c-.13-2.39-.71-9.41-1.25-10.76-.54-1.35-1.92-4.55-4.99-7.22-3.07-2.66-4.92-4.05-4.92-4.05s.57-3.64-.47-5.23c-1.05-1.58-2.29-4.15-5.53-5.56s-8.16-2.87-8.3-2.87-4.62-1.48-6.71-1.92c-2.09-.44-9.91-1.62-11.77-1.99-1.85-.37-4.22-1.01-5.02-1.89-.81-.88-2.6-3.24-3.2-5.09 0 0-.1 2.09.4 4.25.51 2.16 1.38 3.74 2.36 4.55l-8.38-2.28c-7.75-3.21-9.69-8.54-9.69-8.54.96 4.08 2.58 7.37 5.53 9.99l-.08.03-.4-.1s-1.79-.61-3.47-2.26c-1.69-1.65-3.04-3.78-3.04-3.78s.3 2.46.78 3.74c.47 1.28.88 3.17.88 3.17s-1.85-2.87-2.43-3.57c-.57-.71-2.16-3.1-2.16-3.1s.13 2.26.03 3.74c-.1 1.48-.57 3.54-.57 3.54s-1.55 2.43-2.09 3.34c-.54.91-2.29 3.78-2.56 5.97s-.2 3.37.24 4.35c.44.98 1.01 2.9 1.01 2.9s-2.06 1.32-3.37 2.66c-1.32 1.35-3.27 3.17-4.42 6.27s-1.28 7.89-1.35 9.58-.24 8.26.13 10.32c.37 2.06 1.72 10.76 1.89 11.94.17 1.18 1.35 9.54 1.35 9.54l.95 4.44s-1.04-13.9 2.66-19.46c0 0 .69-13.32 1.85-16.56s1.74-7.3 6.83-11.58c0 0 4.75 3.01 10.31 2.55 0 0 6.14 4.29 9.5 2.66 0 0 3.65 2.73 7.44 1.41 1.44 1.38 2.75 1.65 2.75 1.65s1.73.41 3.34-.91l.13.05s2.08.58 4.63-.93c0 0 .95.9 5.51-1.23l8.23-5.94s2.6.51 6.54 6.68c0 0 1.55 3.88 2.19 7.12.64 3.24 1.18 8.06 1.35 10.18.17 2.12.2 5.02.2 5.02s1.72 3.34 2.23 5.94.71 10.05.71 10.05 1.18-4.15 1.18-4.25c0-.1 1.18-8.84 1.18-8.84l1.45-9.04c0 .02.54-6.28.41-8.68z" fill="#2a232b" stroke-width="none" opacity="1" stroke="none"></path><path id="SvgjsPath12076" d="M141.44 44.31c-.76-2.57-2.5-4.66-4.32-6.46-1.71-1.67-3.61-3.1-5.6-4.39.22-.75.35-1.53.35-2.32-.02-2.53-1.23-4.89-2.95-6.63-1.75-1.77-4.04-2.77-6.26-3.55-2.23-.8-4.52-1.4-6.58-2.44-1.02-.51-1.95-1.25-2.49-2.26-.54-1.01-.59-2.27-.15-3.36-.54 1.05-.6 2.36-.09 3.48.36.82.98 1.5 1.69 2.05-.92-.33-1.85-.59-2.77-.8-2.85-.68-5.73-1.07-8.6-1.47-1.43-.2-2.86-.4-4.28-.64-1.41-.26-2.83-.5-4.12-1.01-.32-.13-.63-.28-.9-.46-.27-.2-.56-.4-.81-.64a9.41 9.41 0 0 1-1.38-1.57c-.8-1.15-1.43-2.46-1.82-3.81l-.54-1.85.04 1.91c.04 1.74.27 3.45.72 5.12.4 1.41.99 2.83 2 3.9-1.53-.41-3.06-.79-4.58-1.17-2.64-.7-5.22-1.73-7.5-3.26-1.14-.76-2.18-1.66-3.12-2.67-.93-1-1.75-2.14-2.28-3.38l-.33.1c.55 2.23 1.33 4.42 2.52 6.4.81 1.36 1.85 2.57 3.01 3.63-1.45-.71-2.78-1.65-3.9-2.8-.57-.57-1.09-1.19-1.57-1.84-.47-.65-.92-1.33-1.27-2.03l-.78-1.54.24 1.71c.31 2.14.81 4.24 1.59 6.27.07.19.17.37.25.56-.57-1.02-1.16-2.03-1.78-3.02-.85-1.36-1.72-2.7-2.65-4.01l-.82-1.16.32 1.43c.38 1.66.28 3.41.16 5.16-.01-.03-.01-.06-.02-.08-.27-.91-.85-1.67-1.52-2.28.59.69 1.07 1.49 1.26 2.35.19.87.05 1.76-.26 2.58-.32.82-.77 1.59-1.28 2.33-.52.76-1.02 1.53-1.47 2.34-.92 1.61-1.6 3.39-1.88 5.27-.31 1.88.08 3.88.78 5.59.16.41.35.8.54 1.19-1.92 1.25-3.7 2.75-5.17 4.54-.79.97-1.5 2.01-2.07 3.14-.58 1.14-.92 2.36-1.21 3.58-1.09 4.9-1.15 9.89-.94 14.85.1 2.5.57 4.95.95 7.38l1.23 7.29c.42 2.41.65 4.88 1.12 7.31.44 2.43.92 4.85 1.42 7.27l.4-.05c-.12-1.71-.16-3.42-.19-5.14-.03-1.71 0-3.43.12-5.14.11-1.71.31-3.39.89-5.01.52-1.61 1.14-3.24 1.95-4.68l.04-.08v-.09c.13-2.53.31-5.06.56-7.58.28-2.52.56-5.03 1.04-7.51.24-1.24.52-2.47.88-3.67.36-1.2.75-2.4 1.34-3.49.57-1.07 1.39-2.09 2.12-3.11.38-.5.77-1.01 1.18-1.48.33-.36.68-.77 1.07-1.04 1.5 1.07 3.26 1.66 5.01 2 1.71.29 3.44.4 5.15.3 1.18.8 2.41 1.54 3.72 2.11.96.4 1.96.73 2.99.89.98.14 2.03.14 2.93-.28.4.37.85.69 1.33.92 1.98.96 4.24.99 6.29.54.77.72 1.67 1.29 2.71 1.58 1.25.26 2.57-.15 3.53-.97 1.32.45 2.85.24 4.06-.5.16-.1.3-.22.45-.33 1.11.34 2.32.14 3.41-.19 1.14-.36 2.21-.91 3.22-1.53 2-1.26 3.94-2.61 5.82-4.05.54-.41 1.07-.84 1.59-1.28.98.58 1.83 1.36 2.62 2.18.92.97 1.76 2.02 2.53 3.11.78 1.06 1.28 2.29 1.71 3.55.42 1.26.76 2.55 1.03 3.86.56 2.62.88 5.29 1.18 7.96.28 2.67.48 5.36.61 8.04v.09l.04.08c.81 1.44 1.43 3.06 1.95 4.68.58 1.62.77 3.3.89 5.01.11 1.71.15 3.42.12 5.14-.03 1.71-.08 3.43-.19 5.14l.4.05c.53-2.51 1.02-5.03 1.48-7.56.22-1.26.43-2.54.59-3.81.16-1.26.37-2.52.58-3.78l1.28-7.58c.21-1.27.41-2.54.58-3.82.17-1.29.23-2.59.28-3.88.16-5.17.07-10.39-1.42-15.43zm-69.72-1.39c-.46.45-.89.92-1.32 1.4-.82.98-1.66 1.93-2.33 3.08-1.29 2.28-1.93 4.81-2.47 7.3-.51 2.51-.9 5.04-1.12 7.59-.23 2.52-.37 5.04-.38 7.58-.79 1.56-1.31 3.16-1.77 4.79-.5 1.66-.69 3.42-.77 5.13-.08 1.72-.08 3.44-.09 5.16 0 .75.01 1.51.03 2.26-.24-1.48-.48-2.96-.69-4.45-.36-2.43-.55-4.88-.91-7.34-.34-2.45-.75-4.88-1.12-7.31-.36-2.44-.74-4.86-.88-7.29-.13-2.44-.15-4.9-.05-7.34.12-2.44.27-4.89.77-7.27.76-4.63 3.96-8.46 7.69-11.32.64 1.24 1.44 2.41 2.37 3.44 1.26 1.38 2.68 2.59 4.18 3.65-.44.25-.78.62-1.14.94zm6.39.68c-1.74-.44-3.44-1.1-4.79-2.23-2.83-2.23-5.42-4.83-6.69-8.16-.68-1.65-1.01-3.35-.77-5.1.2-1.74.83-3.43 1.62-5.03.4-.8.84-1.59 1.32-2.36.4-.65.77-1.34 1.05-2.06-.09 1.28-.17 2.57-.2 3.87-.04 2.07.06 4.17.54 6.24.46 2.08 1.42 4 2.58 5.74 2.35 3.49 5.51 6.28 8.81 8.74.5.37 1.01.73 1.52 1.08-1.69-.09-3.37-.31-4.99-.73zm11.8 3.53c-.99-.21-1.94-.6-2.84-1.05-1.82-.91-3.46-2.11-5.05-3.39-3.15-2.58-6.26-5.31-8.45-8.7-1.1-1.68-1.94-3.52-2.41-5.45-.48-1.94-.6-3.97-.59-6 0-2.03.18-4.07.27-6.13.05-1.03.08-2.06.05-3.11-.02-.61-.06-1.23-.14-1.85 1.51 2.03 2.99 4.08 4.37 6.21.29.62.61 1.23 1 1.81.6.91 1.41 1.79 2.33 2.39 1.75 1.26 3.59 2.34 5.17 3.69 1.57 1.34 2.86 2.98 3.64 4.91 1.68 3.84 1.84 8.19 3.2 12.31.35 1.03.76 2.03 1.29 2.99.28.49.64.94 1.05 1.32-.94.33-1.95.24-2.89.05zm4.42.52a5.585 5.585 0 0 1-2.1-2.16c-.46-.92-.84-1.91-1.14-2.92-1.14-4.03-1.28-8.41-2.98-12.48a13.2 13.2 0 0 0-3.87-5.29c-1.69-1.41-3.55-2.47-5.28-3.68-1.73-1.09-2.77-2.97-3.6-4.87-.62-1.47-1.11-3.01-1.46-4.57.67.93 1.43 1.78 2.28 2.55.61.56 1.27 1.06 1.97 1.49.68.45 1.42.77 2.17 1.08.54.49 1.09.96 1.69 1.39 1.85 1.39 4.04 2.32 6.09 3.21 1.98.98 3.56 2.63 4.66 4.55 2.18 3.91 3.03 8.46 3.7 12.94.28 2.25.72 4.59 1.75 6.66.57 1.1 1.3 2.15 2.22 3-2.09.27-4.31.12-6.1-.9zm8.83 2.38c-2.19-.67-3.8-2.56-4.69-4.61-.42-1.05-.77-2.12-.95-3.24-.21-1.11-.28-2.23-.41-3.38-.22-2.28-.59-4.56-1.12-6.81-.53-2.24-1.29-4.47-2.49-6.49-1.17-2.02-2.91-3.82-5.09-4.78-2.16-.86-4.25-1.65-6.12-2.95-1.89-1.23-3.5-2.88-4.7-4.81-.94-1.49-1.59-3.13-2.07-4.82 1.17 1.98 2.83 3.64 4.68 5 2.29 1.65 4.9 2.82 7.6 3.59 2.69.76 5.36 1.43 7.97 2.34 2.6.89 5.12 2.02 7.33 3.58 2.2 1.55 3.96 3.7 4.89 6.22.97 2.52 1.42 5.26 1.51 8 .1 2.74-.13 5.52-.87 8.17-.38 1.31-.87 2.65-1.77 3.67-.92 1.01-2.35 1.57-3.7 1.32zm7.44-1.58c-1.13.75-2.58 1.06-3.93.69.11-.09.22-.19.32-.3.95-1.06 1.51-2.38 1.96-3.71.87-2.67 1.25-5.48 1.3-8.29.01-2.81-.36-5.65-1.34-8.34-.99-2.71-2.89-5.06-5.22-6.72-2.32-1.69-4.98-2.75-7.63-3.64a60.4 60.4 0 0 0-3.41-1.02c-.96-1.12-1.47-2.57-1.81-3.99-.25-1.12-.39-2.26-.45-3.4.34.86.76 1.68 1.26 2.46.4.62.89 1.2 1.43 1.72.27.27.57.5.87.73.33.23.67.4 1.02.56 1.4.58 2.83.89 4.27 1.15 1.43.26 2.87.47 4.3.68 2.86.42 5.72.84 8.49 1.53 2.76.68 5.52 1.64 7.37 3.71 1.9 2.02 2.37 5.02 1.86 7.75-.29 1.32-.88 2.66-1.45 3.96-.6 1.3-1.24 2.59-1.93 3.86a83.922 83.922 0 0 1-4.46 7.4c-.84 1.18-1.63 2.43-2.82 3.21zm12.57-6.48c-1.79 1.51-3.69 2.89-5.6 4.27-.95.67-1.97 1.25-3.06 1.67-1.05.38-2.21.66-3.33.41 1.03-.77 1.8-1.82 2.58-2.81 1.74-2.33 3.27-4.8 4.72-7.32.73-1.26 1.41-2.54 2.05-3.85.63-1.32 1.24-2.64 1.59-4.14.26-1.47.33-2.99.01-4.48-.29-1.49-1-2.91-2.01-4.05a9.366 9.366 0 0 0-1.63-1.46c1.3.52 2.62.99 3.9 1.51 2.16.88 4.32 1.81 5.88 3.46 1.57 1.61 2.6 3.78 2.61 5.99.02 1.1-.23 2.2-.71 3.21-.46 1.01-1.19 1.89-1.96 2.77-1.53 1.73-3.26 3.3-5.04 4.82zm18.68 17.7c-.08 2.55-.42 5.04-.8 7.58l-1.17 7.6c-.39 2.55-.59 5.11-.95 7.63-.22 1.58-.47 3.15-.73 4.73.02-.75.03-1.5.03-2.25-.01-1.72-.01-3.44-.09-5.16-.09-1.71-.27-3.47-.77-5.13-.46-1.63-.98-3.23-1.77-4.79-.01-2.69-.17-5.37-.43-8.05-.26-2.7-.68-5.38-1.27-8.04-.62-2.63-1.37-5.34-3.07-7.58-.83-1.08-1.73-2.11-2.73-3.04-.84-.77-1.74-1.5-2.77-2.02 1.25-1.06 2.45-2.2 3.55-3.43.78-.88 1.6-1.83 2.14-2.96.18-.37.33-.77.46-1.17 1.89 1.38 3.67 2.93 5.28 4.62 1.74 1.84 3.27 3.92 3.93 6.33.68 2.42.95 4.96 1.09 7.49.15 2.55.17 5.1.07 7.64z" fill="#1b141c" stroke-width="none" opacity="1" stroke="none"></path></g><g id="svga-group-glasses-single-move" transform="matrix(1,0,0,1,0,0)"><g id="svga-group-glasses-single"><path id="SvgjsPath10944" d="m92.2 97.2-22.21.64c-.67.02-1.24-.5-1.28-1.16l-.45-8.42c-.04-.69.49-1.25 1.18-1.26l23.84-.39c.65-.01 1.17.52 1.17 1.19l.01 7.06c0 1.25-1.01 2.3-2.26 2.34z" fill="#ffffff" stroke-width="none" opacity="0.45"></path><path id="SvgjsPath10945" d="m109.2 96.73 20.34-.58c.58-.02 1.09-.53 1.14-1.15l.57-7.87c.05-.64-.4-1.15-.99-1.14l-21.85.35c-.63.01-1.15.55-1.17 1.21l-.17 6.97c-.04 1.26.92 2.25 2.13 2.21z" fill="#ffffff" stroke-width="none" opacity="0.45"></path><path id="SvgjsPath10946" d="M95.67 92.08c0 1.23-.32 2.24-.71 2.25-.39.01-.71-.98-.71-2.22 0-1.24.32-2.26.71-2.27.4 0 .72 1 .71 2.24z" fill="#939393" stroke-width="none" opacity="1"></path><path id="SvgjsPath10947" d="M105.99 91.85c-.03 1.22.26 2.2.64 2.19.38-.01.71-1 .75-2.22.03-1.22-.26-2.22-.64-2.21-.39 0-.73 1.01-.75 2.24z" fill="#939393" stroke-width="none" opacity="1"></path><path id="SvgjsPath10948" d="m132.87 85.59-2.48.04-22.04.36c-.76.01-1.4.67-1.42 1.47l-.03 1.39c-1.95-.03-4.03-.54-5.99-.51-2.08.04-4.02.64-6.09.74v-1.41c0-.81-.64-1.46-1.43-1.45l-24.07.39-2.87.05.11 1.91 1.35-.02.45 8.25c.04.8.74 1.44 1.56 1.41l22.5-.65c1.33-.04 2.41-1.16 2.41-2.51v-4.69c2.07-.1 4.01-.7 6.08-.75 1.95-.04 4.03.47 5.98.49l-.11 4.63c-.03 1.33.99 2.38 2.27 2.34l20.6-.6c.71-.02 1.33-.65 1.38-1.4l.56-7.69 1.16-.02.12-1.77zM92.4 96.84l-22.53.64a.75.75 0 0 1-.77-.7l-.45-8.63c-.02-.41.3-.76.71-.76l24.03-.41c.39-.01.71.32.71.72l.01 7.37c0 .94-.77 1.74-1.71 1.77zm37.96-1.75c-.03.37-.33.68-.69.69l-20.62.58c-.91.03-1.63-.72-1.61-1.66l.18-7.26c.01-.4.33-.72.7-.73l22.01-.37c.36-.01.63.3.6.69l-.57 8.06z" fill="#26120b" stroke-width="none" opacity="1" stroke="none"></path></g></g></g></g></g><rect id="svga-credit-rect" width="200" height="15" x="0" y="185" fill="#ecf0f1" opacity="0.5" style="display: none;"></rect><text id="svga-credit-text" font-family="Avenir Next, Roboto, Helvetica, Arial, sans-serif" font-size="10px" text-anchor="start" font-weight="400" size="10px" anchor="start" weight="400" fill="#333333" x="33.40447998046875" y="182.60824704170227" style="display: none;"><tspan id="SvgjsTspan9326" dy="13" x="33.40447998046875">Created on AvatarMaker.com</tspan></text></g><defs id="SvgjsDefs9273"><linearGradient id="SvgjsLinearGradient10774" x1="87.7268" y1="112.9923" x2="87.7268" y2="86.5667" gradientTransform="matrix(0.9926 -1.200000e-02 0 -1 -5.897 192.4354)" gradientUnits="userSpaceOnUse" class="svga-on-canvas-glasses-gradient-single-0-null"><stop id="SvgjsStop10775" stop-opacity="1" stop-color="#3d2d1c" offset="0.0208" ></stop><stop id="SvgjsStop10776" stop-opacity="0.6291" stop-color="#402e1c" offset="0.3825" ></stop><stop id="SvgjsStop10777" stop-opacity="0.3897" stop-color="#48321d" offset="0.6159" ></stop><stop id="SvgjsStop10778" stop-opacity="0.1881" stop-color="#57381f" offset="0.8124" ></stop><stop id="SvgjsStop10779" stop-opacity="7.593334e-03" stop-color="#6c4221" offset="0.9884" ></stop><stop id="SvgjsStop10780" stop-opacity="0" stop-color="#6d4221" offset="0.9958" ></stop></linearGradient><linearGradient id="SvgjsLinearGradient10782" x1="-1744.0752" y1="112.7015" x2="-1744.0752" y2="87.2129" gradientTransform="matrix(-0.9926 1.200000e-02 0 -1 -1611.6344 211.8458)" gradientUnits="userSpaceOnUse" class="svga-on-canvas-glasses-gradient-single-1-null"><stop id="SvgjsStop10783" stop-opacity="1" stop-color="#3d2d1c" offset="0.0208" ></stop><stop id="SvgjsStop10784" stop-opacity="0.6291" stop-color="#402e1c" offset="0.3825" ></stop><stop id="SvgjsStop10785" stop-opacity="0.3897" stop-color="#48321d" offset="0.6159" ></stop><stop id="SvgjsStop10786" stop-opacity="0.1881" stop-color="#57381f" offset="0.8124" ></stop><stop id="SvgjsStop10787" stop-opacity="7.593334e-03" stop-color="#6c4221" offset="0.9884" ></stop><stop id="SvgjsStop10788" stop-opacity="0" stop-color="#6d4221" offset="0.9958" ></stop></linearGradient><linearGradient id="SvgjsLinearGradient10860" x1="79.5772" y1="74.9681" x2="79.5772" y2="107.6386" gradientUnits="userSpaceOnUse" class="svga-on-canvas-glasses-gradient-single-0-null"><stop id="SvgjsStop10861" stop-opacity="1" stop-color="#150000" offset="0.004166667" ></stop><stop id="SvgjsStop10862" stop-opacity="0.8088" stop-color="#190300" offset="0.1945" ></stop><stop id="SvgjsStop10863" stop-opacity="0.6342" stop-color="#240c00" offset="0.3684" ></stop><stop id="SvgjsStop10864" stop-opacity="0.466" stop-color="#361b00" offset="0.5359" ></stop><stop id="SvgjsStop10865" stop-opacity="0.3018" stop-color="#503100" offset="0.6994" ></stop><stop id="SvgjsStop10866" stop-opacity="0.1421" stop-color="#724c00" offset="0.8585" ></stop><stop id="SvgjsStop10867" stop-opacity="0" stop-color="#966a00" offset="1" ></stop></linearGradient><linearGradient id="SvgjsLinearGradient10869" x1="-21.1858" y1="74.8347" x2="-21.1858" y2="107.5897" gradientTransform="matrix(-1 0 0 1 100 0)" gradientUnits="userSpaceOnUse" class="svga-on-canvas-glasses-gradient-single-1-null"><stop id="SvgjsStop10870" stop-opacity="1" stop-color="#150000" offset="0.004166667" ></stop><stop id="SvgjsStop10871" stop-opacity="0.8088" stop-color="#190300" offset="0.1945" ></stop><stop id="SvgjsStop10872" stop-opacity="0.6342" stop-color="#240c00" offset="0.3684" ></stop><stop id="SvgjsStop10873" stop-opacity="0.466" stop-color="#361b00" offset="0.5359" ></stop><stop id="SvgjsStop10874" stop-opacity="0.3018" stop-color="#503100" offset="0.6994" ></stop><stop id="SvgjsStop10875" stop-opacity="0.1421" stop-color="#724c00" offset="0.8585" ></stop><stop id="SvgjsStop10876" stop-opacity="0" stop-color="#966a00" offset="1" ></stop></linearGradient><linearGradient id="SvgjsLinearGradient12669" x1="100.0394" y1="79.6722" x2="100.0394" y2="122.2396" gradientUnits="userSpaceOnUse" class="svga-on-canvas-nose-gradient-single-0-null"><stop id="SvgjsStop12670" stop-opacity="0" stop-color="#ffe4d6" offset="0" ></stop><stop id="SvgjsStop12671" stop-opacity="0.9727" stop-color="#f0c7b1" offset="0.7584" ></stop><stop id="SvgjsStop12672" stop-opacity="0.9769" stop-color="#e8b9a0" offset="0.7953" ></stop><stop id="SvgjsStop12673" stop-opacity="0.9852" stop-color="#e1ac8f" offset="0.8691" ></stop><stop id="SvgjsStop12674" stop-opacity="0.9968" stop-color="#d19271" offset="0.972" ></stop><stop id="SvgjsStop12675" stop-opacity="1" stop-color="#c27b55" offset="1" ></stop></linearGradient></defs></svg>